<?xml version="1.0" encoding="utf-8"?>
<svg xmlns="http://www.w3.org/2000/svg" viewBox="0 0 760 760" role="img" aria-labelledby="map-title map-desc">
  <title id="map-title">北欧五日旅行路线地图</title>
  <desc id="map-desc">基于 Natural Earth 地理数据绘制的北欧地图，标记 Stockholm、Oslo、Bergen、Helsinki 与 Tromso。</desc>
  <defs>
    <filter id="paper">
      <feTurbulence type="fractalNoise" baseFrequency=".85" numOctaves="2" seed="9" result="n" />
      <feColorMatrix in="n" type="saturate" values="0" result="g" />
      <feComponentTransfer in="g">
        <feFuncA type="table" tableValues="0 .045" />
      </feComponentTransfer>
    </filter>
  </defs>
  <rect width="760" height="760" fill="#10271f" />
  <rect width="760" height="760" filter="url(#paper)" opacity=".85" />
  <path d="M411.9 142.9 L421.1 131.4 L426.4 132.0 L432.9 141.8 L442.9 152.7 L449.4 153.5 L452.5 156.0 L460.0 150.9 L462.3 146.3 L469.0 149.9 L474.3 150.9 L477.9 154.7 L481.3 151.0 L481.3 143.6 L487.5 139.6 L488.8 133.9 L486.5 126.7 L487.3 119.0 L486.4 112.8 L487.1 105.3 L489.4 104.1 L492.1 95.0 L503.4 92.4 L506.5 86.1 L510.0 84.8 L519.9 94.4 L531.4 97.3 L536.4 105.1 L531.8 116.8 L532.3 121.3 L534.9 124.2 L538.2 119.7 L538.0 112.8 L545.4 107.6 L547.7 103.4 L548.3 95.6 L552.2 98.2 L557.2 97.4 L556.7 91.3 L554.0 86.2 L548.5 87.4 L543.8 85.6 L542.6 90.7 L538.8 88.5 L536.3 83.5 L527.8 81.7 L521.9 81.8 L521.5 78.5 L528.4 78.9 L541.4 77.8 L545.3 69.3 L550.4 67.4 L551.1 62.8 L540.8 57.0 L536.2 53.0 L524.3 52.1 L521.3 49.1 L515.5 49.7 L513.3 56.6 L513.1 64.0 L510.4 68.9 L506.2 68.3 L510.3 61.8 L507.8 57.2 L511.1 49.9 L511.2 46.1 L501.7 45.6 L497.1 44.0 L493.5 47.7 L492.7 52.3 L496.6 53.5 L496.3 59.2 L493.9 68.8 L488.3 73.9 L488.4 57.3 L485.6 52.5 L480.1 63.5 L480.0 67.2 L474.2 80.2 L475.7 82.7 L473.2 90.5 L468.9 91.2 L468.5 85.9 L471.1 82.2 L470.2 73.0 L475.9 59.4 L473.8 56.9 L468.5 55.4 L462.2 57.4 L459.2 63.3 L455.6 65.3 L456.2 71.9 L447.2 83.3 L446.5 93.9 L441.6 95.9 L440.5 90.8 L435.3 91.0 L426.2 87.6 L424.1 90.2 L418.7 90.7 L415.8 93.5 L427.1 101.7 L427.3 108.4 L417.2 102.0 L416.6 107.4 L407.6 112.7 L404.0 104.8 L400.3 113.3 L397.0 112.1 L390.0 113.5 L387.3 115.6 L384.2 123.4 L376.3 126.6 L372.4 135.2 L373.8 140.0 L367.9 143.5 L364.6 151.0 L368.5 151.8 L361.8 157.7 L352.8 162.7 L350.4 168.3 L351.6 171.2 L346.1 176.4 L346.2 181.1 L348.5 184.3 L348.0 190.6 L344.3 188.4 L345.2 183.0 L339.1 186.2 L340.4 191.7 L329.0 196.5 L328.6 203.2 L331.1 204.6 L323.6 211.1 L324.8 213.8 L318.4 219.8 L322.7 222.4 L330.2 218.5 L329.5 222.5 L324.5 222.5 L317.7 224.7 L315.3 232.1 L310.3 234.2 L306.5 238.1 L302.9 244.6 L299.6 245.2 L296.1 251.8 L298.2 260.3 L298.1 264.9 L292.0 266.9 L292.6 274.5 L288.5 275.4 L288.0 280.3 L282.4 287.2 L283.2 291.5 L286.4 295.9 L281.7 301.2 L283.6 310.1 L274.9 310.6 L271.1 314.3 L264.4 316.2 L268.1 319.7 L263.8 327.0 L265.6 333.1 L262.5 337.4 L257.6 332.4 L249.2 334.9 L246.0 341.2 L237.3 347.9 L236.3 355.8 L227.6 361.5 L228.0 365.9 L232.0 365.3 L233.6 372.9 L236.5 373.4 L243.0 370.9 L247.5 367.1 L252.5 365.2 L256.4 358.8 L262.9 362.9 L254.8 365.8 L249.4 369.4 L249.4 375.2 L245.5 377.3 L240.5 375.4 L234.1 376.5 L229.9 367.2 L224.3 371.7 L221.1 371.9 L219.2 376.4 L212.4 374.5 L211.0 378.4 L206.7 379.2 L208.0 386.8 L200.8 385.1 L196.1 387.0 L190.7 392.7 L185.9 393.5 L182.1 388.7 L174.9 391.4 L176.4 395.2 L174.9 399.9 L181.5 400.0 L181.8 406.3 L176.9 403.3 L170.9 402.6 L167.6 404.7 L162.0 403.1 L160.8 409.3 L164.2 412.3 L154.7 414.9 L152.1 419.0 L146.0 419.6 L137.9 416.3 L135.4 418.0 L139.2 422.6 L137.4 426.9 L139.4 429.5 L136.6 432.8 L130.8 435.2 L130.5 439.8 L135.1 440.5 L135.4 446.9 L130.6 447.6 L127.6 454.7 L130.0 460.1 L135.6 463.7 L138.6 461.8 L146.4 461.5 L155.9 465.1 L154.5 467.8 L149.3 463.9 L137.6 464.2 L135.4 466.0 L128.5 462.9 L126.8 465.1 L125.6 476.5 L126.4 480.5 L129.9 484.8 L139.6 480.1 L137.6 489.7 L135.5 491.6 L128.2 487.5 L128.1 491.8 L125.5 496.0 L127.7 500.0 L138.7 503.9 L144.5 500.1 L147.0 494.7 L150.2 495.8 L145.0 501.5 L143.4 506.5 L135.8 512.2 L134.0 516.1 L136.1 518.9 L133.8 522.6 L127.5 520.3 L121.0 527.6 L120.9 531.0 L125.7 538.1 L134.3 536.3 L132.5 532.1 L134.7 529.5 L139.2 540.2 L133.0 547.2 L132.5 552.5 L126.8 553.1 L122.7 559.7 L126.1 570.1 L130.8 572.3 L134.6 578.9 L144.6 584.2 L142.0 589.6 L149.4 589.4 L151.7 594.1 L157.3 593.6 L160.2 595.6 L166.2 594.4 L176.6 593.9 L182.3 588.6 L186.0 586.9 L205.6 569.6 L208.0 563.9 L213.3 561.6 L217.2 562.0 L227.0 556.8 L231.2 546.7 L232.5 539.9 L236.8 541.6 L235.5 545.9 L239.3 554.3 L250.3 558.2 L251.5 562.8 L251.6 566.8 L256.2 566.1 L260.0 552.5 L257.8 539.5 L263.0 531.0 L262.1 526.7 L268.3 525.9 L276.3 517.1 L276.1 509.6 L278.4 505.6 L278.6 500.6 L274.6 490.5 L272.5 480.9 L277.8 478.3 L281.2 478.8 L284.2 472.1 L285.6 465.2 L280.6 457.7 L276.7 456.1 L271.9 449.9 L275.9 428.9 L275.5 424.6 L272.2 414.0 L273.7 407.9 L273.0 400.0 L275.4 396.9 L271.6 384.7 L275.9 378.0 L275.5 372.0 L277.9 369.6 L285.5 357.4 L291.2 353.4 L295.8 352.2 L308.6 355.8 L312.8 347.7 L312.1 337.9 L303.7 331.8 L315.9 311.2 L316.9 305.7 L319.5 301.4 L320.5 285.5 L321.9 279.6 L320.2 267.8 L328.9 266.7 L336.1 261.6 L335.1 252.6 L339.1 248.0 L345.0 236.0 L351.0 229.0 L351.3 222.8 L346.1 213.7 L347.2 210.1 L351.6 207.9 L353.5 204.1 L356.4 193.1 L364.1 184.7 L373.3 190.0 L377.2 181.9 L376.5 166.2 L380.4 164.5 L383.8 167.3 L389.8 166.8 L403.9 172.2 L408.3 166.6 L403.8 164.3 L407.5 159.1 L408.2 148.5 L404.2 144.2 L411.9 142.9 Z M313.0 178.7 L306.9 177.3 L304.8 179.4 L304.4 185.0 L308.0 186.3 L313.0 178.7 Z M133.5 505.8 L128.0 508.0 L131.6 511.9 L133.5 505.8 Z M138.4 481.1 L130.3 485.4 L133.0 490.1 L137.2 489.2 L138.4 481.1 Z M195.7 376.5 L200.9 375.0 L197.9 371.3 L193.5 373.4 L195.7 376.5 Z M219.3 369.4 L216.5 365.5 L208.5 366.9 L203.9 370.2 L207.0 373.8 L218.6 370.8 L219.3 369.4 Z M328.0 174.6 L322.7 171.9 L317.2 176.7 L315.5 183.3 L324.3 179.0 L328.0 174.6 Z M351.2 159.4 L350.7 156.1 L342.2 161.2 L341.0 157.1 L341.6 149.7 L338.1 149.6 L334.9 156.6 L335.8 163.3 L331.6 166.3 L331.3 175.8 L341.9 174.3 L344.7 167.4 L350.6 166.7 L351.2 159.4 Z M318.8 162.2 L325.2 163.2 L329.0 165.7 L333.1 162.6 L334.0 159.3 L332.4 152.0 L323.8 158.0 L319.5 158.3 L318.8 162.2 Z M335.9 151.7 L343.8 142.0 L339.8 141.4 L334.9 147.6 L335.9 151.7 Z M373.1 128.8 L368.5 124.5 L361.2 127.6 L356.3 134.5 L355.2 145.5 L365.4 140.8 L371.9 139.6 L371.1 133.3 L373.1 128.8 Z M385.6 111.8 L376.4 113.9 L375.7 124.8 L383.7 121.9 L383.2 118.1 L386.3 115.3 L385.6 111.8 Z M393.9 103.4 L390.8 104.7 L387.8 100.4 L382.0 106.8 L387.5 113.4 L391.4 111.0 L393.9 103.4 Z M410.3 98.9 L410.4 94.6 L404.7 96.1 L405.3 100.4 L410.3 98.9 Z M439.3 86.9 L435.6 83.6 L431.5 86.7 L436.9 89.2 L439.3 86.9 Z M448.4 77.3 L443.6 77.3 L438.2 80.9 L439.4 84.6 L443.6 87.2 L448.0 81.1 L448.4 77.3 Z M453.1 70.0 L449.1 66.8 L447.0 69.2 L448.6 74.4 L454.0 72.9 L453.1 70.0 Z M431.3 79.2 L434.1 76.6 L440.1 75.0 L439.7 67.8 L435.4 72.9 L431.9 70.5 L428.3 72.7 L427.5 80.8 L431.3 79.2 Z M478.5 50.1 L470.0 47.2 L467.2 51.7 L471.2 55.8 L478.2 52.8 L478.5 50.1 Z" fill="#e8dfcb" fill-rule="evenodd" stroke="#526e65" stroke-width="1.45" vector-effect="non-scaling-stroke" />
  <path d="M411.9 142.9 L404.2 144.2 L408.2 148.5 L407.5 159.1 L403.8 164.3 L408.3 166.6 L403.9 172.2 L389.8 166.8 L383.8 167.3 L380.4 164.5 L376.5 166.2 L377.2 181.9 L373.3 190.0 L364.1 184.7 L356.4 193.1 L353.5 204.1 L351.6 207.9 L347.2 210.1 L346.1 213.7 L351.3 222.8 L351.0 229.0 L345.0 236.0 L339.1 248.0 L335.1 252.6 L336.1 261.6 L328.9 266.7 L320.2 267.8 L321.9 279.6 L320.5 285.5 L319.5 301.4 L316.9 305.7 L315.9 311.2 L303.7 331.8 L312.1 337.9 L312.8 347.7 L308.6 355.8 L295.8 352.2 L291.2 353.4 L285.5 357.4 L277.9 369.6 L275.5 372.0 L275.9 378.0 L271.6 384.7 L275.4 396.9 L273.0 400.0 L273.7 407.9 L272.2 414.0 L275.5 424.6 L275.9 428.9 L271.9 449.9 L276.7 456.1 L280.6 457.7 L285.6 465.2 L284.2 472.1 L281.2 478.8 L277.8 478.3 L272.5 480.9 L274.6 490.5 L278.6 500.6 L278.4 505.6 L276.1 509.6 L276.3 517.1 L268.3 525.9 L262.1 526.7 L263.0 531.0 L257.8 539.5 L260.0 552.5 L256.2 566.1 L251.6 566.8 L251.5 562.8 L247.0 558.5 L244.3 564.0 L246.6 570.6 L245.4 588.4 L248.8 589.3 L252.6 593.8 L258.1 590.9 L259.3 596.3 L254.7 609.3 L257.6 617.7 L258.6 624.3 L262.0 627.2 L264.7 640.3 L268.2 650.2 L273.1 654.2 L275.9 661.5 L279.1 661.5 L280.5 665.8 L278.0 670.1 L273.1 670.9 L277.8 677.4 L272.3 683.5 L279.2 698.9 L282.3 702.2 L279.1 706.0 L280.6 713.5 L289.5 716.0 L295.5 713.1 L301.5 712.6 L308.6 714.5 L312.9 709.0 L309.1 700.6 L309.4 696.6 L312.7 691.2 L320.7 683.2 L339.5 681.9 L341.3 680.7 L347.8 685.6 L352.1 678.5 L353.3 671.7 L359.0 657.5 L363.2 642.8 L361.1 640.0 L362.6 632.4 L365.9 627.7 L363.9 619.0 L365.9 610.2 L365.1 605.5 L368.0 597.0 L365.6 587.5 L368.7 585.5 L363.5 579.7 L373.4 578.0 L387.2 566.5 L391.1 566.9 L393.3 560.6 L400.5 555.4 L392.6 546.5 L397.5 545.3 L405.8 537.2 L409.0 528.8 L413.1 524.6 L409.5 522.7 L407.6 517.8 L398.9 513.0 L398.7 506.6 L395.6 506.7 L388.9 500.0 L387.7 496.6 L382.1 500.4 L380.6 495.0 L373.7 493.1 L374.5 489.6 L371.7 482.8 L372.4 470.8 L370.0 464.0 L371.3 460.3 L369.5 454.2 L375.4 450.4 L374.0 442.0 L378.0 430.2 L373.3 422.1 L383.1 417.6 L386.4 413.7 L383.7 404.2 L387.9 404.0 L394.7 400.2 L393.6 395.3 L395.9 388.7 L403.8 388.1 L407.7 377.0 L410.8 374.0 L416.3 372.9 L429.1 359.5 L432.6 360.1 L435.7 352.1 L436.4 345.1 L440.7 338.1 L446.6 331.4 L444.4 330.2 L437.5 316.3 L443.8 302.6 L444.7 296.7 L440.5 292.6 L448.3 291.0 L451.5 284.8 L453.8 275.8 L461.7 272.9 L466.3 275.7 L470.7 271.1 L480.8 271.1 L484.0 269.3 L480.3 260.3 L474.4 254.5 L471.7 245.2 L474.9 239.4 L474.0 231.6 L475.4 228.8 L466.7 215.7 L468.3 209.7 L468.1 204.3 L462.4 202.3 L463.7 197.8 L461.2 185.8 L463.4 183.3 L454.5 176.2 L452.0 169.5 L444.6 165.1 L436.1 163.9 L433.4 160.4 L426.0 156.2 L416.9 145.4 L411.9 142.9 Z M375.9 633.7 L372.3 634.4 L370.8 642.2 L367.1 651.7 L365.0 652.6 L360.2 666.3 L360.8 679.4 L364.2 674.5 L365.8 665.2 L370.9 650.6 L375.9 633.7 Z M417.6 608.9 L405.0 612.3 L397.7 624.9 L399.5 630.2 L398.0 635.3 L404.4 646.2 L405.7 639.3 L411.9 635.3 L412.8 630.2 L412.9 615.8 L415.8 614.8 L417.6 608.9 Z M257.9 594.9 L256.5 592.5 L249.4 597.3 L255.4 600.3 L257.9 594.9 Z" fill="#e8dfcb" fill-rule="evenodd" stroke="#526e65" stroke-width="1.45" vector-effect="non-scaling-stroke" />
  <path d="M534.9 124.2 L532.3 121.3 L531.8 116.8 L536.4 105.1 L531.4 97.3 L519.9 94.4 L510.0 84.8 L506.5 86.1 L503.4 92.4 L492.1 95.0 L489.4 104.1 L487.1 105.3 L486.4 112.8 L487.3 119.0 L486.5 126.7 L488.8 133.9 L487.5 139.6 L481.3 143.6 L481.3 151.0 L477.9 154.7 L474.3 150.9 L469.0 149.9 L462.3 146.3 L460.0 150.9 L452.5 156.0 L449.4 153.5 L442.9 152.7 L432.9 141.8 L426.4 132.0 L421.1 131.4 L411.9 142.9 L416.9 145.4 L426.0 156.2 L433.4 160.4 L436.1 163.9 L444.6 165.1 L452.0 169.5 L454.5 176.2 L463.4 183.3 L461.2 185.8 L463.7 197.8 L462.4 202.3 L468.1 204.3 L468.3 209.7 L466.7 215.7 L475.4 228.8 L474.0 231.6 L474.9 239.4 L471.7 245.2 L474.4 254.5 L480.3 260.3 L484.0 269.3 L490.2 269.5 L493.8 275.3 L501.1 275.9 L506.4 280.1 L507.2 292.3 L511.5 301.1 L509.3 307.8 L505.4 304.3 L500.5 307.1 L495.5 315.9 L495.0 322.1 L489.7 329.2 L485.8 336.9 L484.7 344.7 L473.5 355.7 L466.6 364.0 L466.0 369.7 L462.0 372.6 L465.8 376.8 L463.0 380.5 L457.7 383.8 L452.2 383.2 L449.6 390.4 L449.2 397.3 L444.5 401.6 L446.7 409.0 L445.6 413.5 L447.9 418.9 L450.5 418.9 L450.0 434.4 L452.8 436.1 L459.4 451.9 L457.3 453.2 L459.1 465.3 L455.9 474.9 L456.4 481.9 L460.2 491.0 L466.4 490.6 L473.1 496.9 L478.0 498.6 L484.9 498.1 L481.9 503.9 L487.8 503.5 L491.6 499.8 L493.2 501.2 L490.8 505.4 L495.5 510.9 L498.4 510.1 L499.9 516.3 L506.2 512.1 L510.5 511.9 L520.8 506.1 L524.8 508.7 L527.0 504.0 L538.2 498.8 L538.2 496.2 L549.2 494.3 L555.3 485.8 L560.2 486.7 L563.0 483.6 L567.3 483.9 L573.1 479.9 L573.7 477.3 L582.5 479.1 L587.3 477.2 L588.8 474.0 L599.1 455.7 L601.5 454.0 L603.9 447.7 L610.6 439.9 L614.9 428.7 L618.6 423.2 L629.2 395.3 L633.2 389.6 L637.0 380.1 L638.0 367.0 L639.1 361.7 L631.1 354.7 L629.8 351.6 L620.6 346.2 L613.7 344.2 L601.8 335.1 L605.3 332.0 L608.8 322.7 L609.2 318.5 L607.3 313.2 L597.8 309.4 L593.4 301.2 L596.0 296.1 L593.1 292.4 L588.1 293.1 L582.9 285.9 L585.9 280.8 L585.1 276.3 L580.5 276.0 L582.0 271.7 L578.8 259.6 L584.8 254.6 L577.4 239.3 L570.1 230.9 L567.6 225.2 L557.3 212.8 L556.1 206.5 L559.8 192.5 L563.9 182.5 L563.6 174.9 L556.8 170.7 L548.9 161.4 L538.2 158.6 L532.1 146.7 L534.4 132.5 L528.8 130.9 L534.9 124.2 Z M490.0 503.1 L482.5 506.4 L483.5 514.1 L490.7 508.5 L490.0 503.1 Z" fill="#e8dfcb" fill-rule="evenodd" stroke="#526e65" stroke-width="1.45" vector-effect="non-scaling-stroke" />
  <path d="M393.3 549.3 Q314.3 548.3 239.2 523.6" class="route-main" />
  <path d="M239.2 523.6 Q189.3 490.4 129.3 491.7" class="route-main" />
  <path d="M393.3 549.3 Q469.3 541.7 533.4 500.1" class="route-alt" />
  <path d="M239.2 523.6 Q288.8 313.0 385.5 119.3" class="route-alt" />
  <g transform="translate(393.3 549.3)">
    <circle r="8" fill="#dc8875" stroke="#f1eee1" stroke-width="3" />
    <text x="14" y="26" class="label">Stockholm</text>
      <text x="14" y="43" class="note">base / D1</text>
  </g>
  <g transform="translate(239.2 523.6)">
    <circle r="8" fill="#dc8875" stroke="#f1eee1" stroke-width="3" />
    <text x="-62" y="28" class="label">Oslo</text>
      <text x="-62" y="45" class="note">rail / D2</text>
  </g>
  <g transform="translate(129.3 491.7)">
    <circle r="8" fill="#dc8875" stroke="#f1eee1" stroke-width="3" />
    <text x="-92" y="-11" class="label">Bergen</text>
      <text x="-92" y="6" class="note">fjord / D3-4</text>
  </g>
  <g transform="translate(533.4 500.1)">
    <circle r="8" fill="#78aeb1" stroke="#f1eee1" stroke-width="3" />
    <text x="14" y="3" class="label">Helsinki</text>
    <text x="14" y="20" class="note">optional ferry</text>
  </g>
  <g transform="translate(385.5 119.3)">
    <circle r="8" fill="#78aeb1" stroke="#f1eee1" stroke-width="3" />
      <text x="14" y="-8" class="label">Tromso</text>
    <text x="14" y="9" class="note">arctic extension</text>
  </g>
  <style>svg&gt;path:nth-of-type(-n+3){fill:#30473d;stroke:#739187}.route-main,.route-alt{fill:none;stroke-linecap:round}.route-main{stroke:#dc8875;stroke-width:4;stroke-dasharray:8 8;filter:drop-shadow(0 0 4px rgba(220,136,117,.45))}.route-alt{stroke:#78aeb1;stroke-width:3;stroke-dasharray:3 8;opacity:.72}.label{fill:#edf4ee;font:700 14px 'Segoe UI',sans-serif}.note{fill:#a9bdb2;font:italic 12px Georgia,serif}</style>
</svg>
